<svg version="1.1" id="Layer_1" xmlns="http://www.w3.org/2000/svg" xmlns:xlink="http://www.w3.org/1999/xlink" x="0px" y="0px"
	 width="100%" viewBox="0 0 91 115" enable-background="new 0 0 91 115" xml:space="preserve">
<path fill="#FCFEFE" opacity="1.000000" stroke="none" 
	d="
M49.000000,116.000000 
	C32.666668,116.000000 16.833334,116.000000 1.000000,116.000000 
	C1.000000,77.666664 1.000000,39.333332 1.000000,1.000000 
	C31.333334,1.000000 61.666668,1.000000 92.000000,1.000000 
	C92.000000,39.333332 92.000000,77.666664 92.000000,116.000000 
	C77.833336,116.000000 63.666668,116.000000 49.000000,116.000000 
M51.136497,42.281837 
	C56.088856,42.281837 61.041214,42.281837 65.993568,42.281837 
	C65.990044,41.578705 65.986511,40.875576 65.982979,40.172443 
	C55.060036,35.875969 43.925758,34.494682 32.551571,38.999531 
	C21.093418,43.537640 10.541619,57.522717 8.861089,71.222038 
	C18.704062,54.543232 32.291718,45.188118 51.136497,42.281837 
M81.376259,40.202236 
	C77.152199,30.431566 69.863525,23.745398 60.654835,18.931557 
	C77.921295,37.381596 79.505501,58.735973 72.836395,81.897789 
	C82.286583,69.433983 87.467316,56.310253 81.376259,40.202236 
M61.500233,89.242569 
	C47.325836,85.746628 37.285728,76.129036 27.469872,65.510078 
	C27.072655,73.213364 36.342514,86.171936 45.480999,91.465164 
	C55.459774,97.245110 72.314667,97.664368 79.949310,92.734367 
	C74.396103,91.706863 68.337044,90.585762 61.500233,89.242569 
z"/>
<path fill="#11AFEE" opacity="1.000000" stroke="none" 
	d="
M50.702984,42.366280 
	C32.291718,45.188118 18.704062,54.543232 8.861089,71.222038 
	C10.541619,57.522717 21.093418,43.537640 32.551571,38.999531 
	C43.925758,34.494682 55.060036,35.875969 65.982979,40.172443 
	C65.986511,40.875576 65.990044,41.578705 65.993568,42.281837 
	C61.041214,42.281837 56.088856,42.281837 50.702984,42.366280 
z"/>
<path fill="#14B1EF" opacity="1.000000" stroke="none" 
	d="
M81.560493,40.544930 
	C87.467316,56.310253 82.286583,69.433983 72.836395,81.897789 
	C79.505501,58.735973 77.921295,37.381596 60.654835,18.931557 
	C69.863525,23.745398 77.152199,30.431566 81.560493,40.544930 
z"/>
<path fill="#0F559D" opacity="1.000000" stroke="none" 
	d="
M61.889111,89.353622 
	C68.337044,90.585762 74.396103,91.706863 79.949310,92.734367 
	C72.314667,97.664368 55.459774,97.245110 45.480999,91.465164 
	C36.342514,86.171936 27.072655,73.213364 27.469872,65.510078 
	C37.285728,76.129036 47.325836,85.746628 61.889111,89.353622 
z"/>
</svg>